<svg width="20" height="20" viewBox="0 0 20 20" fill="none" xmlns="http://www.w3.org/2000/svg">
<path d="M19.2058 8.31083L17.2617 5.53333C17.1464 5.36869 16.9931 5.23425 16.8148 5.14141C16.6365 5.04857 16.4385 5.00007 16.2375 5H13.125V3.125C13.1246 2.79361 12.9927 2.47593 12.7584 2.2416C12.5241 2.00728 12.2064 1.87544 11.875 1.875H1.875C1.54361 1.87544 1.22593 2.00728 0.991604 2.2416C0.757279 2.47593 0.625441 2.79361 0.625 3.125V15.9375H2.69833C2.80771 16.5497 3.12847 17.1041 3.60469 17.5041C4.08091 17.9041 4.6824 18.1242 5.3043 18.1262C5.9262 18.1282 6.52907 17.9119 7.00783 17.5149C7.4866 17.118 7.81088 16.5657 7.92417 15.9542L7.92667 15.9375H12.0733C12.1827 16.5497 12.5035 17.1041 12.9797 17.5041C13.4559 17.9041 14.0574 18.1242 14.6793 18.1262C15.3012 18.1282 15.9041 17.9119 16.3828 17.5149C16.8616 17.118 17.1859 16.5657 17.2992 15.9542L17.3017 15.9375H19.375V8.84833V8.84667C19.375 8.64583 19.3117 8.46 19.2033 8.3075L19.205 8.31L19.2058 8.31083ZM1.875 3.125H11.875V10H1.875L1.87417 3.125H1.875ZM5.3125 16.875C5.03429 16.875 4.76232 16.7925 4.531 16.6379C4.29967 16.4834 4.11938 16.2637 4.01291 16.0066C3.90644 15.7496 3.87859 15.4668 3.93286 15.1939C3.98714 14.921 4.12111 14.6704 4.31784 14.4737C4.51456 14.2769 4.76521 14.143 5.03807 14.0887C5.31094 14.0344 5.59377 14.0623 5.85081 14.1687C6.10784 14.2752 6.32753 14.4555 6.4821 14.6868C6.63667 14.9182 6.71917 15.1901 6.71917 15.4683C6.71873 15.8411 6.5705 16.1985 6.30697 16.4622C6.04345 16.7259 5.68612 16.8743 5.31333 16.875H5.3125ZM14.6875 16.875C14.4093 16.875 14.1373 16.7925 13.906 16.6379C13.6747 16.4834 13.4944 16.2637 13.3879 16.0066C13.2814 15.7496 13.2536 15.4668 13.3079 15.1939C13.3621 14.921 13.4961 14.6704 13.6928 14.4737C13.8896 14.2769 14.1402 14.143 14.4131 14.0887C14.6859 14.0344 14.9688 14.0623 15.2258 14.1687C15.4828 14.2752 15.7025 14.4555 15.8571 14.6868C16.0117 14.9182 16.0942 15.1901 16.0942 15.4683C16.0937 15.8411 15.9455 16.1985 15.682 16.4622C15.4184 16.7259 15.0611 16.8743 14.6883 16.875H14.6875ZM18.125 14.6875H17.2267C16.8817 13.5925 15.8758 12.8125 14.6875 12.8125C13.4992 12.8125 12.4933 13.5925 12.1542 14.6683L12.1492 14.6875H7.85167C7.50667 13.5925 6.50083 12.8125 5.3125 12.8125C4.12417 12.8125 3.11833 13.5925 2.77917 14.6683L2.77417 14.6875H1.87583V11.25H18.1258L18.125 14.6875ZM18.125 10H13.125V6.25H16.2375L18.125 8.94667V10Z" fill="#505050"/>
</svg>
