<svg width="331" height="13" viewBox="0 0 331 13" fill="none" xmlns="http://www.w3.org/2000/svg">
<line y1="6.5" x2="120" y2="6.5" stroke="#C71628"/>
<line x1="211" y1="5.5" x2="331" y2="5.5" stroke="#C71628"/>
<path d="M159.832 10H158.838V1.75H159.832V10ZM165.015 9.42529C164.628 9.88005 164.06 10.1074 163.312 10.1074C162.693 10.1074 162.22 9.92839 161.894 9.57031C161.572 9.20866 161.409 8.67513 161.405 7.96973V4.18848H162.399V7.94287C162.399 8.82373 162.757 9.26416 163.473 9.26416C164.232 9.26416 164.737 8.98128 164.988 8.41553V4.18848H165.981V10H165.036L165.015 9.42529ZM172.416 7.15869C172.416 8.04671 172.212 8.76107 171.804 9.30176C171.396 9.83887 170.848 10.1074 170.16 10.1074C169.426 10.1074 168.859 9.84782 168.458 9.32861L168.409 10H167.496V1.75H168.49V4.82764C168.891 4.32992 169.444 4.08105 170.149 4.08105C170.855 4.08105 171.408 4.34782 171.809 4.88135C172.214 5.41488 172.416 6.14535 172.416 7.07275V7.15869ZM171.422 7.0459C171.422 6.36914 171.292 5.84635 171.03 5.47754C170.769 5.10872 170.393 4.92432 169.902 4.92432C169.247 4.92432 168.776 5.22868 168.49 5.8374V8.35107C168.794 8.9598 169.269 9.26416 169.913 9.26416C170.389 9.26416 170.76 9.07975 171.025 8.71094C171.29 8.34212 171.422 7.78711 171.422 7.0459Z" fill="#C71628"/>
</svg>
