<svg width="19" height="310" viewBox="0 0 19 310" fill="none" xmlns="http://www.w3.org/2000/svg">
<line x1="7.5" x2="7.5" y2="100" stroke="#C71628"/>
<line x1="7.5" y1="210" x2="7.5" y2="310" stroke="#C71628"/>
<path d="M2.33105 160H1.06641V149.5H2.33105V160ZM8.92773 159.268C8.43555 159.847 7.71322 160.136 6.76074 160.136C5.97233 160.136 5.37077 159.909 4.95605 159.453C4.5459 158.993 4.33854 158.314 4.33398 157.416V152.603H5.59863V157.382C5.59863 158.503 6.05436 159.063 6.96582 159.063C7.93197 159.063 8.57454 158.703 8.89355 157.983V152.603H10.1582V160H8.95508L8.92773 159.268ZM18.3477 156.384C18.3477 157.514 18.0879 158.423 17.5684 159.111C17.0488 159.795 16.3516 160.136 15.4766 160.136C14.5423 160.136 13.82 159.806 13.3096 159.145L13.248 160H12.0859V149.5H13.3506V153.417C13.861 152.783 14.5651 152.467 15.4629 152.467C16.3607 152.467 17.0648 152.806 17.5752 153.485C18.0902 154.164 18.3477 155.094 18.3477 156.274V156.384ZM17.083 156.24C17.083 155.379 16.9167 154.713 16.584 154.244C16.2513 153.774 15.7728 153.54 15.1484 153.54C14.3145 153.54 13.7152 153.927 13.3506 154.702V157.901C13.738 158.676 14.3418 159.063 15.1621 159.063C15.7682 159.063 16.2399 158.829 16.5771 158.359C16.9144 157.89 17.083 157.183 17.083 156.24Z" fill="#C71628"/>
</svg>
