<svg width="18" height="20" viewBox="0 0 18 20" fill="none" xmlns="http://www.w3.org/2000/svg">
<path d="M16.4178 4.5061V1.42633C16.4178 1.00078 16.1129 0.656982 15.7355 0.656982H1.32196C0.944567 0.656982 0.639666 1.00078 0.639666 1.42633V4.5061C0.283593 4.53014 1.32108e-05 4.86433 1.32108e-05 5.27304V8.43937C-0.00135225 9.02129 0.103145 9.59734 0.307047 10.1319C0.39873 10.3772 0.511735 10.608 0.639666 10.8267V19.1212C0.639666 19.5444 0.944567 19.8906 1.32196 19.8906H7.16412V15.6592H9.89331V19.8906H15.7355C16.1129 19.8906 16.4178 19.5468 16.4178 19.1212V10.8267C16.5477 10.6074 16.6591 10.3748 16.7504 10.1319C16.9529 9.59579 17.0574 9.02599 17.0574 8.43937V5.27304C17.0574 4.86433 16.7738 4.53014 16.4178 4.5061ZM14.8826 18.1619H11.2579V14.8898C11.2579 14.4643 10.953 14.1205 10.5756 14.1205H6.48183C6.10443 14.1205 5.79953 14.4643 5.79953 14.8898V18.1619H2.17483V12.339C2.23667 12.3726 2.30063 12.4063 2.36673 12.4351C2.8422 12.6611 3.34753 12.7741 3.86778 12.7741C4.38803 12.7741 4.89122 12.6611 5.36883 12.4351C5.66307 12.2957 5.94026 12.1178 6.19398 11.9038C6.19825 11.9014 6.20251 11.9014 6.20678 11.9038C6.4613 12.1187 6.73846 12.2972 7.03193 12.4351C7.5074 12.6611 8.01273 12.7741 8.53298 12.7741C9.05323 12.7741 9.55643 12.6611 10.034 12.4351C10.3283 12.2957 10.6055 12.1178 10.8592 11.9038C10.8635 11.9014 10.8677 11.9014 10.872 11.9038C11.1265 12.1187 11.4037 12.2972 11.6971 12.4351C12.1726 12.6611 12.6779 12.7741 13.1982 12.7741C13.7184 12.7741 14.2216 12.6611 14.6992 12.4351C14.7632 12.4039 14.8272 12.3726 14.8911 12.339V18.1619H14.8826ZM14.8826 4.5037H2.17483V2.388H14.8826V4.5037Z" fill="#505050"/>
</svg>
